
<svg width="1440" height="400" viewBox="0 0 1440 400" fill="none" xmlns="http://www.w3.org/2000/svg">
  <!-- Central temple dome -->
  <path d="M720 50 L760 150 L780 150 L800 100 L820 150 L840 150 L880 50 L900 150 L680 150 L700 50 L720 50Z" fill="white"/>
  <path d="M680 150 L680 200 L900 200 L900 150 L680 150Z" fill="white"/>
  
  <!-- Central temple structure -->
  <path d="M700 200 L700 300 L740 300 L740 250 L760 250 L760 300 L800 300 L800 250 L820 250 L820 300 L860 300 L860 200 L700 200Z" fill="white"/>
  
  <!-- Temple base -->
  <path d="M680 300 L680 350 L900 350 L900 300 L680 300Z" fill="white"/>
  
  <!-- Left smaller temple -->
  <path d="M500 100 L530 180 L540 180 L550 150 L560 180 L570 180 L600 100 L610 180 L490 180 L500 100Z" fill="white"/>
  <path d="M490 180 L490 230 L610 230 L610 180 L490 180Z" fill="white"/>
  <path d="M500 230 L500 300 L530 300 L530 260 L540 260 L540 300 L560 300 L560 260 L570 260 L570 300 L600 300 L600 230 L500 230Z" fill="white"/>
  <path d="M490 300 L490 350 L610 350 L610 300 L490 300Z" fill="white"/>
  
  <!-- Right smaller temple -->
  <path d="M940 100 L970 180 L980 180 L990 150 L1000 180 L1010 180 L1040 100 L1050 180 L930 180 L940 100Z" fill="white"/>
  <path d="M930 180 L930 230 L1050 230 L1050 180 L930 180Z" fill="white"/>
  <path d="M940 230 L940 300 L970 300 L970 260 L980 260 L980 300 L1000 300 L1000 260 L1010 260 L1010 300 L1040 300 L1040 230 L940 230Z" fill="white"/>
  <path d="M930 300 L930 350 L1050 350 L1050 300 L930 300Z" fill="white"/>

  <!-- Base platform -->
  <path d="M300 350 L300 400 L1140 400 L1140 350 L300 350Z" fill="white"/>
</svg>
